<mxfile host="65bd71144e">
    <diagram id="hwfBl6Xby9Z6v3edqpue" name="Page-1">
        <mxGraphModel dx="1847" dy="1014" grid="1" gridSize="10" guides="1" tooltips="1" connect="1" arrows="1" fold="1" page="1" pageScale="1" pageWidth="827" pageHeight="1169" math="0" shadow="0">
            <root>
                <mxCell id="0"/>
                <mxCell id="1" parent="0"/>
                <mxCell id="2" value="Users" style="whiteSpace=wrap;html=1;align=center;" parent="1" vertex="1">
                    <mxGeometry x="240" y="230" width="100" height="40" as="geometry"/>
                </mxCell>
                <mxCell id="5" value="username" style="ellipse;whiteSpace=wrap;html=1;align=center;" parent="1" vertex="1">
                    <mxGeometry x="140" y="150" width="100" height="40" as="geometry"/>
                </mxCell>
                <mxCell id="6" value="ID" style="ellipse;whiteSpace=wrap;html=1;align=center;fontStyle=4;" parent="1" vertex="1">
                    <mxGeometry x="100" y="230" width="100" height="40" as="geometry"/>
                </mxCell>
                <mxCell id="7" value="email" style="ellipse;whiteSpace=wrap;html=1;align=center;" parent="1" vertex="1">
                    <mxGeometry x="330" y="150" width="100" height="40" as="geometry"/>
                </mxCell>
                <mxCell id="8" value="Password" style="ellipse;whiteSpace=wrap;html=1;align=center;" parent="1" vertex="1">
                    <mxGeometry x="380" y="230" width="100" height="40" as="geometry"/>
                </mxCell>
                <mxCell id="9" value="" style="endArrow=none;html=1;rounded=0;" parent="1" source="6" target="2" edge="1">
                    <mxGeometry relative="1" as="geometry">
                        <mxPoint x="510" y="310" as="sourcePoint"/>
                        <mxPoint x="670" y="310" as="targetPoint"/>
                    </mxGeometry>
                </mxCell>
                <mxCell id="10" value="" style="endArrow=none;html=1;rounded=0;" parent="1" source="2" target="5" edge="1">
                    <mxGeometry relative="1" as="geometry">
                        <mxPoint x="510" y="310" as="sourcePoint"/>
                        <mxPoint x="670" y="310" as="targetPoint"/>
                    </mxGeometry>
                </mxCell>
                <mxCell id="11" value="" style="endArrow=none;html=1;rounded=0;" parent="1" source="2" target="7" edge="1">
                    <mxGeometry relative="1" as="geometry">
                        <mxPoint x="510" y="310" as="sourcePoint"/>
                        <mxPoint x="670" y="310" as="targetPoint"/>
                    </mxGeometry>
                </mxCell>
                <mxCell id="13" value="" style="endArrow=none;html=1;rounded=0;" parent="1" source="2" target="8" edge="1">
                    <mxGeometry relative="1" as="geometry">
                        <mxPoint x="510" y="310" as="sourcePoint"/>
                        <mxPoint x="670" y="310" as="targetPoint"/>
                    </mxGeometry>
                </mxCell>
            </root>
        </mxGraphModel>
    </diagram>
</mxfile>